<?xml version="1.0" standalone="no"?>
<!DOCTYPE svg PUBLIC "-//W3C//DTD SVG 20010904//EN"
 "http://www.w3.org/TR/2001/REC-SVG-20010904/DTD/svg10.dtd">
<svg version="1.0" xmlns="http://www.w3.org/2000/svg"
 width="512.000000pt" height="512.000000pt" viewBox="0 0 512.000000 512.000000"
 preserveAspectRatio="xMidYMid meet">

<g transform="translate(0.000000,512.000000) scale(0.100000,-0.100000)"
fill="#000000" stroke="none">
<path d="M2464 5105 c-47 -13 -1009 -539 -1046 -572 -42 -38 -8 -123 49 -123
17 0 218 106 528 277 l500 278 65 0 65 0 905 -502 c498 -275 977 -541 1065
-590 l160 -88 -1098 -3 c-603 -1 -1590 -1 -2193 0 l-1097 3 421 233 c231 128
426 240 433 248 34 42 -3 118 -58 117 -29 0 -1099 -587 -1141 -626 -21 -19
-22 -28 -22 -167 0 -181 12 -228 77 -301 56 -61 123 -96 206 -105 l58 -7 129
-181 129 -181 1 -921 0 -922 -132 -186 -132 -186 -98 0 c-110 0 -148 -11 -190
-56 -42 -46 -48 -75 -48 -245 0 -169 9 -208 57 -251 56 -51 -94 -48 2503 -48
2147 0 2415 2 2447 15 95 40 112 84 113 287 0 167 -6 196 -48 242 -42 45 -80
56 -190 56 l-98 0 -132 186 -132 186 0 922 1 921 129 181 129 182 48 6 c97 14
145 36 205 96 76 76 88 118 88 308 0 143 0 144 -27 171 -16 15 -89 60 -163
101 -74 40 -605 334 -1178 652 -709 393 -1062 583 -1100 593 -68 18 -121 18
-188 0z m2506 -1560 c0 -102 -14 -142 -66 -181 l-37 -29 -2308 0 -2308 0 -27
21 c-59 43 -69 68 -72 175 l-4 99 2411 0 2411 0 0 -85z m-3636 -500 l-96 -135
-262 0 -262 0 -90 127 c-49 70 -90 130 -92 135 -2 4 199 8 447 8 l450 0 -95
-135z m2304 -50 l132 -186 0 -466 c0 -465 0 -467 22 -490 26 -28 67 -30 99 -4
l24 19 3 446 3 446 224 0 225 0 0 -870 0 -870 -225 0 -225 0 0 270 c0 285 -3
309 -47 329 -34 16 -47 14 -77 -10 l-26 -20 0 -307 0 -307 -133 -187 -132
-187 -945 0 -945 0 -132 187 -133 187 0 917 0 917 132 186 131 185 947 0 947
0 131 -185z m950 177 c-1 -5 -43 -65 -92 -135 l-90 -127 -262 0 -262 0 -96
135 -95 135 450 0 c248 0 449 -4 447 -8z m-3388 -1282 l0 -870 -225 0 -225 0
0 870 0 870 225 0 225 0 0 -870z m137 -1155 l93 -130 -231 -3 c-126 -1 -331
-1 -453 0 l-223 3 94 133 95 132 266 -2 266 -3 93 -130z m3166 3 l94 -133
-229 -3 c-126 -1 -330 -1 -454 0 l-224 3 71 100 c39 55 82 115 96 133 l24 32
264 0 263 0 95 -132z m462 -438 l0 -145 -2405 0 -2405 0 -3 134 c-1 74 0 141
2 148 4 11 442 13 2408 11 l2403 -3 0 -145z"/>
<path d="M2385 2734 c-305 -68 -547 -288 -643 -584 -117 -360 26 -761 347
-974 140 -93 294 -139 471 -139 176 0 331 45 471 139 321 212 464 614 347 974
-90 278 -309 490 -588 570 -101 29 -305 36 -405 14z m328 -150 c255 -56 464
-258 534 -514 21 -79 24 -260 4 -340 -20 -84 -94 -228 -148 -291 -146 -168
-327 -253 -543 -252 -277 0 -514 148 -635 398 -98 202 -98 417 0 620 139 288
473 449 788 379z"/>
<path d="M2508 2473 c-9 -10 -18 -35 -22 -55 -6 -33 -10 -37 -46 -43 -64 -11
-124 -56 -154 -116 -23 -47 -26 -64 -26 -161 0 -69 5 -121 13 -141 32 -74 112
-137 177 -137 l30 0 0 -130 c0 -123 -1 -130 -20 -130 -24 0 -46 33 -54 82 -17
97 -146 85 -146 -13 0 -110 94 -219 189 -219 26 0 30 -4 36 -40 7 -42 43 -80
75 -80 32 0 68 38 75 80 6 35 10 40 33 40 41 1 105 34 136 71 47 55 56 89 56
207 0 97 -3 114 -26 161 -30 60 -90 105 -155 116 l-39 7 0 129 c0 100 3 129
13 129 22 0 57 -45 57 -73 0 -40 40 -80 80 -80 71 0 92 85 44 182 -30 60 -90
105 -154 116 -36 6 -40 10 -46 43 -9 52 -30 72 -74 72 -23 0 -43 -7 -52 -17z
m-28 -373 c0 -109 -2 -130 -15 -130 -8 0 -24 9 -35 20 -17 17 -20 33 -20 107
0 75 3 90 22 110 43 45 48 33 48 -107z m204 -301 c25 -19 26 -25 26 -108 0
-93 -14 -131 -51 -131 -18 0 -19 8 -19 130 0 72 4 130 9 130 4 0 20 -9 35 -21z"/>
<path d="M2499 4660 c-99 -17 -201 -95 -250 -190 -34 -68 -38 -195 -8 -275 30
-81 112 -164 192 -193 78 -29 176 -29 254 0 80 29 162 112 192 193 30 80 26
207 -8 274 -72 138 -223 216 -372 191z m150 -168 c19 -9 48 -34 65 -55 25 -31
31 -49 34 -101 8 -122 -68 -206 -188 -206 -112 0 -190 79 -190 190 0 150 144
238 279 172z"/>
</g>
</svg>
