<?xml version="1.0" standalone="no"?>
<!DOCTYPE svg PUBLIC "-//W3C//DTD SVG 20010904//EN"
 "http://www.w3.org/TR/2001/REC-SVG-20010904/DTD/svg10.dtd">
<svg version="1.0" xmlns="http://www.w3.org/2000/svg"
 width="512.000000pt" height="512.000000pt" viewBox="0 0 512.000000 512.000000"
 preserveAspectRatio="xMidYMid meet">

<g transform="translate(0.000000,512.000000) scale(0.100000,-0.100000)"
fill="#000000" stroke="none">
<path d="M1195 4910 c-33 -4 -76 -12 -97 -19 -115 -38 -236 -138 -296 -244
-68 -120 -63 -21 -74 -1637 -5 -806 -11 -1471 -13 -1478 -3 -9 -76 -12 -321
-12 -298 0 -317 -1 -344 -20 -50 -36 -52 -51 -48 -406 4 -326 4 -330 31 -409
86 -257 295 -434 563 -475 47 -7 551 -10 1569 -8 l1500 3 80 25 c228 72 399
242 479 474 20 59 20 84 26 971 l5 910 401 5 c327 4 404 8 418 19 47 39 46 16
46 929 0 579 -4 878 -11 918 -22 119 -91 241 -179 316 -61 53 -144 93 -251
122 l-97 26 -1663 -1 c-915 -1 -1691 -5 -1724 -9z m2933 -227 c-2 -5 -18 -37
-37 -73 -19 -36 -39 -78 -45 -95 -8 -21 -12 -569 -16 -1865 l-5 -1835 -22 -59
c-29 -75 -57 -120 -112 -179 -136 -146 -356 -189 -534 -103 -122 58 -199 141
-249 265 -21 53 -23 74 -28 381 -5 354 -7 362 -66 388 -18 9 -297 12 -1050 12
l-1024 0 6 908 c3 499 9 1161 13 1472 6 560 7 565 29 615 36 79 106 141 183
164 40 11 2962 15 2957 4z m574 -31 c69 -30 131 -92 164 -165 l29 -62 3 -807
3 -808 -326 0 -326 0 3 813 3 812 26 55 c59 124 175 194 309 186 37 -2 85 -12
112 -24z m-1852 -3577 c0 -314 27 -429 135 -580 l46 -65 -1228 2 c-1190 3
-1229 4 -1273 22 -69 30 -146 84 -186 130 -55 63 -102 169 -114 256 -11 85
-14 443 -3 453 3 4 595 7 1315 7 l1308 0 0 -225z"/>
<path d="M1371 3894 c-39 -33 -50 -83 -27 -131 31 -65 23 -64 645 -61 l559 3
26 24 c51 48 52 113 4 161 l-30 30 -573 0 -573 0 -31 -26z"/>
<path d="M1384 3101 c-63 -38 -70 -128 -13 -175 l31 -26 1024 0 c736 0 1031 3
1047 11 39 20 57 51 56 99 0 48 -9 66 -49 93 -23 16 -100 17 -1045 17 -980 0
-1021 -1 -1051 -19z"/>
<path d="M1393 2305 c-42 -18 -68 -70 -59 -118 9 -50 53 -84 118 -92 29 -3
492 -5 1028 -3 1064 3 996 0 1037 58 33 48 9 128 -48 157 -38 20 -2031 18
-2076 -2z"/>
</g>
</svg>
