<?xml version="1.0" standalone="no"?>
<!DOCTYPE svg PUBLIC "-//W3C//DTD SVG 20010904//EN"
 "http://www.w3.org/TR/2001/REC-SVG-20010904/DTD/svg10.dtd">
<svg version="1.0" xmlns="http://www.w3.org/2000/svg"
 width="512.000000pt" height="512.000000pt" viewBox="0 0 512.000000 512.000000"
 preserveAspectRatio="xMidYMid meet">

<g transform="translate(0.000000,512.000000) scale(0.100000,-0.100000)"
fill="#000000" stroke="none">
<path d="M1380 5051 c-217 -47 -420 -176 -552 -351 -68 -89 -143 -246 -169
-355 -28 -113 -30 -302 -5 -413 146 -653 895 -960 1446 -591 105 71 229 198
288 298 94 159 134 306 133 496 -1 297 -135 566 -372 745 -95 71 -214 130
-325 160 -113 32 -327 37 -444 11z m284 -141 c483 -56 804 -526 675 -990 -94
-341 -407 -580 -759 -580 -518 0 -899 501 -760 998 84 302 348 531 657 571 95
12 88 12 187 1z"/>
<path d="M1544 4658 c-26 -12 -44 -48 -44 -88 0 -24 -6 -32 -33 -44 -89 -37
-148 -125 -148 -223 -1 -79 23 -134 81 -186 52 -46 103 -67 168 -67 56 0 88
-17 107 -56 19 -40 12 -74 -22 -106 -23 -21 -35 -23 -165 -28 -156 -6 -168
-11 -168 -77 0 -55 28 -73 110 -73 l70 0 0 -34 c0 -49 33 -86 76 -86 49 0 84
37 84 88 0 34 4 41 26 46 40 10 121 92 140 141 11 31 15 64 12 109 -8 129
-100 218 -240 232 -91 9 -123 33 -123 94 0 34 6 47 28 66 27 23 36 24 156 24
115 0 131 2 155 21 35 28 36 80 1 114 -21 22 -33 25 -90 25 l-65 0 0 31 c0 20
-10 40 -29 60 -31 30 -52 35 -87 17z"/>
<path d="M4471 3879 c-199 -24 -238 -31 -255 -48 -29 -29 -27 -88 3 -112 27
-22 58 -23 201 -5 58 7 107 12 109 10 2 -2 -14 -25 -36 -51 -22 -26 -226 -273
-452 -548 -227 -275 -416 -501 -421 -503 -4 -1 -242 101 -529 229 -367 162
-529 229 -545 225 -12 -3 -255 -177 -540 -386 -285 -209 -522 -380 -528 -380
-8 0 -322 228 -878 639 -91 67 -176 124 -189 128 -54 14 -105 -48 -85 -103 6
-19 167 -143 564 -435 451 -331 561 -408 587 -409 26 0 122 66 563 390 l531
390 528 -235 c291 -129 538 -235 549 -235 11 0 29 8 40 18 12 9 229 269 483
577 253 308 465 562 470 563 5 2 9 -55 9 -127 0 -118 2 -133 20 -151 12 -12
33 -20 55 -20 22 0 43 8 55 20 19 19 20 33 20 274 0 140 -3 262 -6 271 -7 17
-55 46 -76 44 -7 -1 -118 -14 -247 -30z"/>
<path d="M4470 2928 c-54 -28 -80 -62 -91 -119 -11 -60 -11 -2574 1 -2623 11
-48 36 -84 81 -114 33 -23 37 -23 270 -20 261 3 262 4 313 72 21 27 21 30 21
1374 l0 1347 -24 34 c-45 63 -79 71 -316 71 -199 0 -213 -1 -255 -22z m445
-1433 l0 -1290 -190 0 -190 0 -3 1293 -2 1292 192 -2 193 -3 0 -1290z"/>
<path d="M138 2350 c-20 -11 -47 -34 -60 -52 l-23 -33 0 -1057 c0 -1051 0
-1057 21 -1084 51 -68 52 -69 313 -72 233 -3 237 -3 270 20 45 30 70 66 81
114 12 49 12 1983 1 2043 -10 48 -33 84 -75 115 -26 20 -43 21 -259 23 -214 2
-235 1 -269 -17z m450 -1142 l-3 -1003 -190 0 -190 0 -3 990 c-1 545 0 996 3
1003 3 9 52 12 195 12 l190 0 -2 -1002z"/>
<path d="M2300 2347 c-30 -16 -51 -37 -67 -67 l-23 -43 0 -1026 c0 -979 1
-1028 19 -1067 10 -23 34 -52 52 -65 34 -24 36 -24 279 -24 238 0 246 1 277
23 17 12 41 42 52 65 21 43 21 50 21 1069 l0 1025 -23 43 c-16 30 -37 51 -67
67 -41 22 -53 23 -260 23 -207 0 -219 -1 -260 -23z m448 -1139 l-3 -1003 -185
0 -185 0 -3 1003 -2 1002 190 0 190 0 -2 -1002z"/>
<path d="M3405 2025 c-50 -18 -91 -62 -105 -114 -7 -27 -10 -310 -8 -893 l3
-853 22 -35 c12 -20 40 -46 62 -58 39 -22 47 -23 274 -20 l234 3 35 27 c72 55
68 -1 68 957 0 705 -2 868 -14 894 -17 42 -66 83 -114 97 -58 16 -408 12 -457
-5z m423 -982 l-3 -838 -185 0 -185 0 -3 838 -2 837 190 0 190 0 -2 -837z"/>
<path d="M1215 1747 c-22 -13 -49 -40 -62 -62 l-23 -40 0 -733 c0 -817 -3
-775 68 -830 l35 -27 234 -3 c227 -3 235 -2 274 20 22 12 50 38 62 58 l22 35
3 720 c2 518 0 732 -9 762 -12 45 -58 96 -102 112 -17 7 -116 11 -245 11 -207
0 -219 -1 -257 -23z m453 -839 l-3 -703 -185 0 -185 0 -3 703 -2 702 190 0
190 0 -2 -702z"/>
</g>
</svg>
